<svg width="57" height="47" viewBox="0 0 57 47" fill="none" xmlns="http://www.w3.org/2000/svg">
<path d="M53.618 3.49212H51.2623V1.25496C51.2623 0.795681 50.8919 0.425293 50.4326 0.425293H45.4101C44.9509 0.425293 44.5805 0.795681 44.5805 1.25496V3.49212H17.0383V1.25496C17.0383 0.795681 16.6679 0.425293 16.2086 0.425293H11.1862C10.7269 0.425293 10.3565 0.795681 10.3565 1.25496V3.49212H8.41564C6.38591 3.49212 4.72656 5.15146 4.72656 7.1812V27.4637C4.72656 27.923 5.09695 28.2934 5.55624 28.2934C6.01552 28.2934 6.38591 27.923 6.38591 27.4637V7.1812C6.38591 6.07003 7.28966 5.15146 8.41564 5.15146H53.6328C54.5217 5.15146 55.2477 5.87743 55.2477 6.76636V34.3233C55.2477 35.2123 54.5217 35.9382 53.6328 35.9382H51.8549V32.7825C51.8549 32.3232 51.4845 31.9528 51.0253 31.9528H42.0766C41.6174 31.9528 41.247 32.3232 41.247 32.7825V35.9382H27.8537L31.0094 35.0789C32.6391 34.6345 34.0762 33.7011 35.143 32.3973L40.5062 25.8785C40.6099 25.7451 40.684 25.5821 40.6988 25.4192L41.1729 19.1966C41.2173 18.5892 40.8469 17.9818 40.284 17.7447C40.5358 17.5965 40.7136 17.3299 40.7136 17.0187C40.7136 16.5595 40.3432 16.1891 39.8839 16.1891H36.2393C35.78 16.1891 35.4096 16.5595 35.4096 17.0187C35.4096 17.478 35.78 17.8484 36.2393 17.8484H38.9654C38.8765 17.9077 38.7876 17.9818 38.7135 18.0558L35.6615 21.1078C35.0689 21.7005 34.58 22.4412 34.0614 23.0931C33.7799 23.4487 33.8244 23.9821 34.1947 24.2636C34.5503 24.5451 35.0837 24.5006 35.3652 24.1302L36.3282 22.945L38.7876 25.4044L33.9133 31.3454C33.0539 32.3825 31.928 33.1233 30.6242 33.4788L17.468 37.2716C16.4457 37.5976 16.9642 39.1829 17.9717 38.8569L20.8607 37.9235V44.9017H19.7051C19.2458 44.9017 18.8754 45.272 18.8754 45.7313C18.8754 46.1906 19.2458 46.561 19.7051 46.561H24.8017C25.261 46.561 25.6313 46.1906 25.6313 45.7313C25.6313 45.272 25.261 44.9017 24.8017 44.9017H22.5349V37.6124H53.6624C55.4699 37.6124 56.9367 36.1457 56.9367 34.3382V6.78118C56.8922 4.95886 55.4255 3.49212 53.618 3.49212ZM46.225 2.08464H49.5881V3.4773H46.225V2.08464ZM12.001 2.08464H15.3642V3.4773H12.001V2.08464ZM39.4691 19.6115L39.1728 23.4635L37.3949 21.6856L39.4691 19.6115ZM42.8767 35.9382V33.6122H50.1659V35.9382H42.8767Z" fill="#00093C"/>
<path d="M15.6749 44.9015H4.97803V40.4716C4.97803 37.6566 5.62992 34.8565 6.85961 32.3378C7.54113 30.96 8.96342 30.0711 10.5042 30.0711H24.5494C27.4829 30.0711 30.3423 29.034 32.5943 27.1524C32.9498 26.8561 32.9943 26.3375 32.698 25.982C32.4017 25.6264 31.8831 25.5819 31.5275 25.8782C29.5719 27.508 27.0977 28.4117 24.5642 28.4117H18.5195C19.4529 27.4339 20.0307 26.1153 20.0307 24.6634V21.5965C22.1789 21.4484 23.8679 19.6705 23.8679 17.4926C23.8679 15.2258 22.0159 13.3739 19.7492 13.3739C18.3565 13.3443 17.0379 13.6702 16.0749 14.7221C15.6008 15.2407 14.9193 15.537 14.223 15.537H11.9265C10.0153 15.537 8.4597 17.0926 8.4597 19.0038V25.256C8.4597 25.9671 8.62267 26.6635 9.05232 27.2413C9.24492 27.508 9.48197 27.7302 9.74865 27.908C10.045 28.1006 10.4598 28.1747 10.6968 28.4117C8.4597 28.3673 6.34107 29.597 5.36324 31.6119C4.01502 34.3676 3.30387 37.4196 3.30387 40.4864V44.9163H0.829673C0.37039 44.9163 0 45.2867 0 45.7459C0 46.2052 0.37039 46.5756 0.829673 46.5756H15.6749C16.1342 46.5756 16.5046 46.2052 16.5046 45.7459C16.5194 45.2718 16.1342 44.9015 15.6749 44.9015ZM14.3711 28.3821C13.9118 28.3524 13.4525 28.2339 13.0377 28.0413C13.2303 27.9376 13.4229 27.8191 13.5859 27.6857C14.2822 27.1079 14.6674 26.2635 14.6674 25.3004V21.5965H18.3565V24.6486C18.3565 26.7079 16.6823 28.3969 14.6082 28.3969C14.5193 28.3969 14.4452 28.3969 14.3711 28.3821ZM10.1339 25.2412V18.989C10.1339 17.9964 10.9487 17.1815 11.9414 17.1815H14.223C15.3934 17.1815 16.5046 16.6926 17.3046 15.8333C17.9565 15.1221 18.8454 14.9888 19.764 15.0184C21.1122 15.0184 22.2085 16.1148 22.2085 17.463C22.2085 18.8112 21.1122 19.9076 19.764 19.9076H13.8377C13.3785 19.9076 13.0081 20.278 13.0081 20.7372V25.2856C13.0081 26.2635 12.1488 26.8709 11.2154 26.6931C10.4746 26.5746 10.1339 25.9671 10.1339 25.2412Z" fill="#00093C"/>
<path d="M28.5332 13.152H33.0668C33.5261 13.152 33.8965 12.7816 33.8965 12.3223V9.25545C33.8965 8.79617 33.5261 8.42578 33.0668 8.42578H28.5332C28.0739 8.42578 27.7036 8.79617 27.7036 9.25545V12.3223C27.6887 12.7816 28.0591 13.152 28.5332 13.152ZM29.3629 10.0851H32.2371V11.4778H29.3629V10.0851Z" fill="#00093C"/>
<path d="M27.6914 18.5298C27.6914 18.9891 28.0618 19.3595 28.5211 19.3595H33.0546C33.5139 19.3595 33.8843 18.9891 33.8843 18.5298V15.463C33.8843 15.0037 33.5139 14.6333 33.0546 14.6333H28.5211C28.0618 14.6333 27.6914 15.0037 27.6914 15.463V18.5298ZM29.3656 16.3075H32.2398V17.7001H29.3656V16.3075Z" fill="#00093C"/>
<path d="M36.2086 11.611H50.9945C51.4538 11.611 51.8242 11.2406 51.8242 10.7813C51.8242 10.322 51.4538 9.95166 50.9945 9.95166H36.2086C35.7493 9.95166 35.3789 10.322 35.3789 10.7813C35.3789 11.2406 35.7493 11.611 36.2086 11.611Z" fill="#00093C"/>
</svg>
