<svg width="50" height="51" viewBox="0 0 50 51" fill="none" xmlns="http://www.w3.org/2000/svg">
<path d="M28.421 24.2904C28.5675 24.5834 28.8605 24.7421 29.1657 24.7421C29.2878 24.7421 29.4221 24.7177 29.5442 24.6567C29.593 24.6323 34.501 22.1417 36.9183 21.3725C37.3578 21.2382 37.602 20.7621 37.4555 20.3226C37.3212 19.883 36.8572 19.6389 36.4055 19.7732C33.8539 20.5789 28.9826 23.0573 28.775 23.155C28.3844 23.387 28.2134 23.8875 28.421 24.2904Z" fill="#00093C"/>
<path d="M29.1681 14.7558C29.2902 14.7558 29.4245 14.7314 29.5466 14.6703C29.5954 14.6459 34.5034 12.1553 36.9207 11.3862C37.3602 11.2519 37.6044 10.7757 37.4579 10.3362C37.3236 9.89671 36.8597 9.65254 36.4079 9.78684C33.8563 10.5926 28.985 13.071 28.7775 13.1687C28.3624 13.3762 28.2036 13.8768 28.4112 14.2919C28.5821 14.5849 28.8751 14.7558 29.1681 14.7558Z" fill="#00093C"/>
<path d="M49.1769 13.083C48.713 13.083 48.3467 13.4615 48.3467 13.9132V46.4129C48.3467 47.7925 47.2235 48.9157 45.8439 48.9157H25.8338V46.9989C27.0546 46.5716 30.2167 45.5827 33.3299 45.5827C40.5942 45.5827 45.5143 47.1943 45.5631 47.2065C45.8195 47.292 46.0881 47.2431 46.3079 47.0966C46.5276 46.9379 46.6497 46.6937 46.6497 46.4251V9.75C46.6497 9.35932 46.3811 9.01747 46.0026 8.93201C46.0026 8.93201 45.3434 8.78551 44.2324 8.57796C43.7806 8.4925 43.3411 8.79771 43.2679 9.24944C43.1824 9.70116 43.4876 10.1407 43.9394 10.2261C44.3667 10.2994 44.7207 10.3726 45.0015 10.4337V45.3141C43.1092 44.8136 38.9216 43.9223 33.3299 43.9223C29.7039 43.9223 26.1268 45.1188 25.028 45.5217C24.0513 45.0822 21.0845 43.9223 17.4952 43.9223C11.757 43.9223 7.02004 44.8746 4.99338 45.3508V10.3971C6.65378 9.98196 11.5739 8.9198 17.4952 8.9198C20.5351 8.9198 23.1356 9.87209 24.1611 10.2994V43.0921C24.1611 43.3974 24.3199 43.666 24.5885 43.8125C24.8448 43.959 25.1745 43.959 25.4309 43.8003C25.5163 43.7514 33.7694 38.8191 41.0947 36.3773C41.4366 36.2674 41.6685 35.95 41.6685 35.5837V1.41141C41.6685 1.14282 41.5342 0.886433 41.3145 0.727719C41.0947 0.569005 40.8017 0.532378 40.5453 0.630048C33.8793 3.13285 27.1279 7.33266 27.0668 7.36929C26.6762 7.61346 26.5541 8.12623 26.7982 8.51691C27.0424 8.90759 27.5552 9.02968 27.9459 8.78551C28.0069 8.74888 33.8793 5.09846 40.0081 2.63229V34.9855C34.3188 36.9633 28.3732 40.1865 25.8338 41.6393V9.75C25.8338 9.43257 25.6506 9.15177 25.3698 9.00526C25.2233 8.93201 21.8049 7.2472 17.4952 7.2472C9.96235 7.2472 4.1754 8.87097 3.93122 8.94422C3.57717 9.04189 3.33299 9.37153 3.33299 9.75V46.4251C3.33299 46.6815 3.45508 46.9379 3.66263 47.0844C3.80914 47.1943 3.98006 47.2553 4.16319 47.2553C4.23644 47.2553 4.3219 47.2431 4.39516 47.2187C4.4562 47.2065 10.2187 45.5827 17.5074 45.5827C20.5596 45.5827 23.16 46.535 24.1734 46.9623V48.9157H4.16319C2.7836 48.9157 1.66039 47.7925 1.66039 46.4129V13.9132C1.66039 13.4493 1.28192 13.083 0.830197 13.083C0.366263 13.083 0 13.4615 0 13.9132V46.4129C0 48.7082 1.86794 50.5761 4.16319 50.5761H45.8317C48.127 50.5761 49.9949 48.7082 49.9949 46.4129V13.9132C50.0071 13.4615 49.6286 13.083 49.1769 13.083Z" fill="#00093C"/>
<path d="M28.421 19.2972C28.5675 19.5903 28.8605 19.749 29.1657 19.749C29.2878 19.749 29.4221 19.7245 29.5442 19.6635C29.593 19.6391 34.501 17.1485 36.9183 16.3793C37.3578 16.2451 37.602 15.7689 37.4555 15.3294C37.3212 14.8899 36.8572 14.6457 36.4055 14.78C33.8539 15.5858 28.9826 18.0642 28.775 18.1618C28.3844 18.3816 28.2134 18.8821 28.421 19.2972Z" fill="#00093C"/>
<path d="M28.421 29.2963C28.5675 29.5893 28.8605 29.748 29.1657 29.748C29.2878 29.748 29.4221 29.7236 29.5442 29.6625C29.593 29.6381 34.501 27.1475 36.9183 26.3784C37.3578 26.2441 37.602 25.7679 37.4555 25.3284C37.3212 24.8889 36.8572 24.6447 36.4055 24.779C33.8539 25.5848 28.9826 28.0632 28.775 28.1609C28.3844 28.3806 28.2134 28.8812 28.421 29.2963Z" fill="#00093C"/>
<path d="M20.1918 16.0498C15.0397 14.8411 9.19174 16.3795 8.94756 16.4405C8.50805 16.5626 8.23946 17.0143 8.36154 17.466C8.45921 17.8323 8.80106 18.0887 9.16732 18.0887C9.24058 18.0887 9.31383 18.0765 9.38708 18.0643C9.44812 18.0521 15.0764 16.5626 19.8134 17.6858C20.2651 17.7957 20.7046 17.5149 20.8145 17.0631C20.9244 16.5992 20.6436 16.1475 20.1918 16.0498Z" fill="#00093C"/>
<path d="M20.1918 21.0432C15.0397 19.8345 9.19174 21.3728 8.94756 21.4461C8.50805 21.5682 8.23946 22.0199 8.36154 22.4716C8.45921 22.8379 8.80106 23.0943 9.16732 23.0943C9.24058 23.0943 9.31383 23.0821 9.38708 23.0699C9.44812 23.0576 15.0764 21.5682 19.8134 22.6914C20.2651 22.8013 20.7046 22.5205 20.8145 22.0687C20.9244 21.6048 20.6436 21.1531 20.1918 21.0432Z" fill="#00093C"/>
<path d="M28.421 34.3016C28.5675 34.5946 28.8605 34.7534 29.1657 34.7534C29.2878 34.7534 29.4221 34.7289 29.5442 34.6679C29.593 34.6435 34.501 32.1529 36.9183 31.3837C37.3578 31.2494 37.602 30.7733 37.4555 30.3338C37.3212 29.8943 36.8572 29.6501 36.4055 29.7844C33.8539 30.5902 28.9826 33.0686 28.775 33.1662C28.3844 33.386 28.2134 33.8865 28.421 34.3016Z" fill="#00093C"/>
<path d="M20.1918 26.0486C15.0397 24.8399 9.19174 26.3782 8.94756 26.4515C8.50805 26.5735 8.23946 27.0253 8.36154 27.477C8.45921 27.8555 8.80106 28.0996 9.16732 28.0996C9.24058 28.0996 9.31383 28.0874 9.38708 28.0752C9.44812 28.063 15.0764 26.5735 19.8134 27.6968C20.2651 27.8066 20.7046 27.5258 20.8145 27.0741C20.9244 26.598 20.6436 26.1584 20.1918 26.0486Z" fill="#00093C"/>
<path d="M20.1918 36.0479C15.0397 34.8392 9.19174 36.3775 8.94756 36.4385C8.50805 36.5606 8.23946 37.0124 8.36154 37.4641C8.45921 37.8426 8.80106 38.0867 9.16732 38.0867C9.24058 38.0867 9.31383 38.0745 9.38708 38.0623C9.44812 38.0501 15.0764 36.5606 19.8134 37.6838C20.2651 37.7815 20.7046 37.5129 20.8145 37.0612C20.9244 36.6095 20.6436 36.1577 20.1918 36.0479Z" fill="#00093C"/>
<path d="M20.1918 31.0544C15.0397 29.8458 9.19174 31.3841 8.94756 31.4573C8.50805 31.5794 8.23946 32.0311 8.36154 32.4829C8.45921 32.8613 8.80106 33.1055 9.16732 33.1055C9.24058 33.1055 9.31383 33.0933 9.38708 33.0811C9.44812 33.0689 15.0764 31.5794 19.8134 32.7026C20.2651 32.8125 20.7046 32.5317 20.8145 32.08C20.9244 31.6038 20.6436 31.1521 20.1918 31.0544Z" fill="#00093C"/>
</svg>
