<svg width="131" height="116" viewBox="0 0 131 116" fill="none" xmlns="http://www.w3.org/2000/svg">
<path d="M62.1017 61.6261V73.8853H12.9719V64.1336L38.0476 40.451C40.71 37.9125 42.5055 35.7455 43.4343 33.9499C44.363 32.0925 44.8274 30.266 44.8274 28.4704C44.8274 25.87 43.9296 23.8887 42.134 22.5266C40.4004 21.1025 37.8309 20.3905 34.4256 20.3905C31.5775 20.3905 29.008 20.9477 26.7171 22.0622C24.4263 23.1148 22.5069 24.7246 20.959 26.8916L10 19.8332C12.5385 16.0564 16.0367 13.1154 20.4946 11.0103C24.9525 8.84328 30.0606 7.75977 35.8187 7.75977C40.6481 7.75977 44.8583 8.56466 48.4494 10.1745C52.1024 11.7223 54.9195 13.9513 56.9008 16.8613C58.944 19.7094 59.9656 23.0838 59.9656 26.9845C59.9656 30.5136 59.2227 33.8261 57.7367 36.9219C56.2507 40.0176 53.3717 43.5468 49.0995 47.5094L34.147 61.6261H62.1017Z" fill="black"/>
<path d="M90.5992 33.2998C99.7627 33.2998 106.511 35.1263 110.846 38.7793C115.241 42.4323 117.439 47.3236 117.439 53.4533C117.439 57.4158 116.449 61.0379 114.468 64.3194C112.486 67.539 109.452 70.1394 105.366 72.1207C101.342 74.0401 96.3573 74.9998 90.4135 74.9998C85.8317 74.9998 81.3119 74.4116 76.854 73.2352C72.458 71.9969 68.7121 70.2632 65.6164 68.0343L71.5602 56.5181C74.0369 58.3755 76.885 59.8305 80.1046 60.8831C83.3242 61.8737 86.6366 62.3691 90.042 62.3691C93.8188 62.3691 96.7907 61.6261 98.9578 60.1401C101.125 58.6541 102.208 56.58 102.208 53.9176C102.208 51.1314 101.063 49.0263 98.772 47.6023C96.5431 46.1782 92.6424 45.4662 87.07 45.4662H70.4458L73.7892 8.87424H113.446V20.9477H86.327L85.3054 33.2998H90.5992Z" fill="black"/>
<path d="M13.9521 94.2563H16.5933V100.446H24.9018V94.2563H27.5429V108.838H24.9018V102.73H16.5933V108.838H13.9521V94.2563Z" fill="black"/>
<path d="M38.9235 109.003C37.4746 109.003 36.1724 108.682 35.0169 108.04C33.8614 107.398 32.9535 106.517 32.2932 105.399C31.6513 104.261 31.3303 102.978 31.3303 101.547C31.3303 100.116 31.6513 98.8416 32.2932 97.7228C32.9535 96.5857 33.8614 95.7053 35.0169 95.0817C36.1724 94.4397 37.4746 94.1188 38.9235 94.1188C40.3725 94.1188 41.6655 94.4397 42.8027 95.0817C43.9582 95.7053 44.8569 96.5857 45.4988 97.7228C46.1591 98.8416 46.4893 100.116 46.4893 101.547C46.4893 102.978 46.1591 104.261 45.4988 105.399C44.8569 106.517 43.9582 107.398 42.8027 108.04C41.6655 108.682 40.3725 109.003 38.9235 109.003ZM38.9235 106.692C39.8589 106.692 40.6935 106.481 41.4271 106.059C42.1791 105.619 42.766 105.013 43.1878 104.243C43.6097 103.454 43.8206 102.556 43.8206 101.547C43.8206 100.538 43.6097 99.6486 43.1878 98.8783C42.766 98.0896 42.1791 97.4844 41.4271 97.0625C40.6935 96.6407 39.8589 96.4298 38.9235 96.4298C37.9881 96.4298 37.1444 96.6407 36.3925 97.0625C35.6588 97.4844 35.0719 98.0896 34.6317 98.8783C34.2099 99.6486 33.9989 100.538 33.9989 101.547C33.9989 102.556 34.2099 103.454 34.6317 104.243C35.0719 105.013 35.6588 105.619 36.3925 106.059C37.1444 106.481 37.9881 106.692 38.9235 106.692Z" fill="black"/>
<path d="M61.5119 94.2563V108.838H59.1459V104.216H54.9091H54.6065L51.4151 108.838H48.5814L52.1304 103.858C51.03 103.528 50.1863 102.987 49.5994 102.235C49.0124 101.464 48.719 100.511 48.719 99.3735C48.719 97.7045 49.2876 96.4389 50.4247 95.5769C51.5619 94.6965 53.13 94.2563 55.1292 94.2563H61.5119ZM51.4151 99.456C51.4151 100.428 51.7178 101.153 52.323 101.629C52.9466 102.088 53.8728 102.317 55.1017 102.317H59.1459V96.5673H55.2118C52.6807 96.5673 51.4151 97.5302 51.4151 99.456Z" fill="black"/>
<path d="M74.0932 94.7515C75.4504 94.7515 76.6609 95.0542 77.7247 95.6594C78.7885 96.2647 79.6138 97.1084 80.2008 98.1905C80.806 99.2543 81.1086 100.474 81.1086 101.85C81.1086 103.262 80.7877 104.518 80.1457 105.619C79.5221 106.701 78.6326 107.544 77.4771 108.15C76.34 108.755 75.0377 109.058 73.5704 109.058C71.0944 109.058 69.1777 108.214 67.8205 106.527C66.4816 104.821 65.8121 102.427 65.8121 99.346C65.8121 96.3564 66.4266 94.0179 67.6554 92.3305C68.8843 90.6248 70.7642 89.4968 73.2953 88.9466L79.9532 87.4609L80.3383 89.882L74.2032 91.2025C72.2957 91.6244 70.8743 92.3397 69.9389 93.3484C69.0035 94.3572 68.4716 95.8062 68.3432 97.6953C68.9668 96.7599 69.7738 96.0354 70.7642 95.5219C71.7547 95.0083 72.8643 94.7515 74.0932 94.7515ZM73.6255 106.857C74.5609 106.857 75.3862 106.646 76.1015 106.224C76.8352 105.802 77.4037 105.224 77.8072 104.491C78.2107 103.739 78.4125 102.886 78.4125 101.932C78.4125 100.483 77.9723 99.3185 77.0919 98.4381C76.2116 97.5577 75.0561 97.1175 73.6255 97.1175C72.1949 97.1175 71.0302 97.5577 70.1315 98.4381C69.2511 99.3185 68.8109 100.483 68.8109 101.932C68.8109 102.886 69.0127 103.739 69.4162 104.491C69.838 105.224 70.4158 105.802 71.1494 106.224C71.8831 106.646 72.7084 106.857 73.6255 106.857Z" fill="black"/>
<path d="M92.6115 94.1188C94.0238 94.1188 95.2894 94.4306 96.4082 95.0542C97.527 95.6778 98.3982 96.549 99.0218 97.6678C99.6637 98.7866 99.9847 100.08 99.9847 101.547C99.9847 103.014 99.6637 104.316 99.0218 105.454C98.3982 106.572 97.527 107.444 96.4082 108.067C95.2894 108.691 94.0238 109.003 92.6115 109.003C91.5661 109.003 90.6032 108.801 89.7228 108.397C88.8608 107.994 88.1271 107.407 87.5219 106.637V114.175H84.8808V94.2563H87.4118V96.5673C87.9988 95.7603 88.7416 95.155 89.6403 94.7515C90.539 94.3297 91.5294 94.1188 92.6115 94.1188ZM92.3915 106.692C93.3269 106.692 94.1614 106.481 94.895 106.059C95.647 105.619 96.2339 105.013 96.6558 104.243C97.096 103.454 97.3161 102.556 97.3161 101.547C97.3161 100.538 97.096 99.6486 96.6558 98.8783C96.2339 98.0896 95.647 97.4844 94.895 97.0625C94.1614 96.6407 93.3269 96.4298 92.3915 96.4298C91.4744 96.4298 90.6399 96.6498 89.8879 97.09C89.1542 97.5119 88.5673 98.108 88.1271 98.8783C87.7053 99.6486 87.4944 100.538 87.4944 101.547C87.4944 102.556 87.7053 103.454 88.1271 104.243C88.549 105.013 89.1359 105.619 89.8879 106.059C90.6399 106.481 91.4744 106.692 92.3915 106.692Z" fill="black"/>
<path d="M115.031 94.2563V108.838H112.665V104.216H108.428H108.125L104.934 108.838H102.1L105.649 103.858C104.549 103.528 103.705 102.987 103.118 102.235C102.531 101.464 102.238 100.511 102.238 99.3735C102.238 97.7045 102.806 96.4389 103.944 95.5769C105.081 94.6965 106.649 94.2563 108.648 94.2563H115.031ZM104.934 99.456C104.934 100.428 105.237 101.153 105.842 101.629C106.465 102.088 107.392 102.317 108.621 102.317H112.665V96.5673H108.731C106.2 96.5673 104.934 97.5302 104.934 99.456Z" fill="black"/>
</svg>
