<svg width="100" height="71" viewBox="0 0 100 71" fill="none" xmlns="http://www.w3.org/2000/svg">
<path d="M16.4671 70.6464C7.38524 70.6464 0 63.2611 0 54.1793C0 45.0974 7.38524 37.7122 16.4671 37.7122C25.549 37.7122 32.9342 45.0974 32.9342 54.1793C32.9342 63.311 25.549 70.6464 16.4671 70.6464Z" fill="white"/>
<path d="M16.4671 70.6464C7.38524 70.6464 0 63.2611 0 54.1793C0 45.0974 7.38524 37.7122 16.4671 37.7122C25.549 37.7122 32.9342 45.0974 32.9342 54.1793C32.9342 63.311 25.549 70.6464 16.4671 70.6464Z" fill="white"/>
<path d="M55.3903 1.8336L37.526 31.0253C37.027 31.8736 37.5759 32.9215 38.524 32.9215H56.3883H74.2526C75.2007 32.9215 75.7496 31.8237 75.2506 31.0253L57.3863 1.8336C56.8873 1.08509 55.8394 1.08509 55.3903 1.8336Z" fill="white"/>
<path d="M32.5839 6.77396L26.1468 0.336827C25.6977 -0.112276 24.8993 -0.112276 24.4502 0.336827L17.3644 7.42267C16.9153 7.87177 16.1168 7.87177 15.6677 7.42267L8.5819 0.336827C8.13279 -0.112276 7.33439 -0.112276 6.88529 0.336827L0.448155 6.77396C-0.000947557 7.22307 -0.000947557 8.02147 0.448155 8.47058L7.53399 15.5564C7.98309 16.0055 7.98309 16.8039 7.53399 17.253L0.448155 24.3389C-0.000947557 24.788 -0.000947557 25.5864 0.448155 26.0355L6.88529 32.4726C7.33439 32.9217 8.13279 32.9217 8.5819 32.4726L15.6677 25.3868C16.1168 24.9377 16.9153 24.9377 17.3644 25.3868L24.4502 32.4726C24.8993 32.9217 25.6977 32.9217 26.1468 32.4726L32.5839 26.0355C33.0331 25.5864 33.0331 24.788 32.5839 24.3389L25.4981 17.253C25.049 16.8039 25.049 16.0055 25.4981 15.5564L32.5839 8.47058C33.083 8.02147 33.083 7.27297 32.5839 6.77396Z" fill="white"/>
<path d="M40.6675 49.0892V51.185H44.3102V52.6321H40.6675V55.4764H38.8711V47.6421H44.7593V49.0892H40.6675Z" fill="white"/>
<path d="M47.2059 54.678C46.6071 54.0792 46.2578 53.181 46.2578 52.0333V47.6421H48.0542V51.9335C48.0542 53.3307 48.653 54.0293 49.8007 54.0293C50.3496 54.0293 50.7987 53.8796 51.0981 53.5303C51.3975 53.181 51.5472 52.682 51.5472 51.9335V47.6421H53.3437V52.0333C53.3437 53.181 53.0443 54.0792 52.3956 54.678C51.7968 55.2768 50.8985 55.6261 49.8007 55.6261C48.7029 55.6261 47.8047 55.2768 47.2059 54.678Z" fill="white"/>
<path d="M56.9364 49.1391H54.4414V47.6421H61.2279V49.1391H58.7328V55.4764H56.9364V49.1391Z" fill="white"/>
<path d="M63.2723 54.678C62.6735 54.0792 62.3242 53.181 62.3242 52.0333V47.6421H64.1206V51.9335C64.1206 53.3307 64.7194 54.0293 65.8671 54.0293C66.416 54.0293 66.8651 53.8796 67.1645 53.5303C67.4639 53.181 67.6137 52.682 67.6137 51.9335V47.6421H69.4101V52.0333C69.4101 53.181 69.1107 54.0792 68.462 54.678C67.8631 55.2768 66.965 55.6261 65.8671 55.6261C64.7693 55.6261 63.921 55.2768 63.2723 54.678Z" fill="white"/>
<path d="M76.4978 55.4768L75.0008 53.2812H74.901H73.3042V55.4768H71.5078V47.6924H74.901C75.5996 47.6924 76.1984 47.7922 76.6974 48.0417C77.1964 48.2912 77.5956 48.5906 77.895 49.0397C78.1445 49.4389 78.2943 49.9878 78.2943 50.5367C78.2943 51.1355 78.1445 51.6345 77.895 52.0337C77.5956 52.4329 77.1964 52.7822 76.6974 52.9818L78.444 55.4768H76.4978ZM76.0487 49.4888C75.7493 49.2393 75.3501 49.1395 74.8012 49.1395H73.3042V51.884H74.8012C75.3501 51.884 75.7493 51.7842 76.0487 51.5347C76.3481 51.2852 76.4479 50.9858 76.4479 50.5367C76.4978 50.0377 76.3481 49.7383 76.0487 49.4888Z" fill="white"/>
<path d="M86.1278 54.0293V55.4764H80.0898V47.6421H85.9781V49.0892H81.8862V50.7858H85.4791V52.2329H81.8862V54.0293H86.1278Z" fill="white"/>
<path d="M44.0119 68.2512H40.3691L39.6705 69.9478H37.8242L41.3172 62.1633H43.1137L46.6067 69.9478H44.7105L44.0119 68.2512ZM43.4629 66.9039L42.2154 63.9098L40.9679 66.9039H43.4629Z" fill="white"/>
<path d="M49.2022 69.5485C48.5534 69.1992 48.0544 68.7002 47.7051 68.1014C47.3558 67.5026 47.1562 66.804 47.1562 66.0056C47.1562 65.257 47.3558 64.5584 47.7051 63.9097C48.0544 63.3109 48.6033 62.8119 49.2022 62.4626C49.8509 62.1133 50.5495 61.9636 51.3479 61.9636C52.0465 61.9636 52.6453 62.0634 53.1942 62.3129C53.7431 62.5624 54.1922 62.9117 54.5914 63.3608L53.4437 64.4087C52.8948 63.8099 52.2461 63.5105 51.4976 63.5105C50.9986 63.5105 50.5994 63.6103 50.2002 63.8099C49.801 64.0095 49.5016 64.3089 49.302 64.7081C49.1024 65.1073 49.0026 65.5065 49.0026 66.0056C49.0026 66.5046 49.1024 66.9038 49.302 67.303C49.5016 67.7022 49.801 68.0016 50.2002 68.2012C50.5994 68.4008 50.9986 68.5006 51.4976 68.5006C52.296 68.5006 52.9447 68.2012 53.4437 67.5525L54.5914 68.6004C54.2421 69.0495 53.7431 69.3988 53.1942 69.6483C52.6453 69.8978 52.0465 69.9976 51.3479 69.9976C50.5994 70.0475 49.8509 69.8978 49.2022 69.5485Z" fill="white"/>
<path d="M61.1271 68.2512H57.4844L56.7858 69.9478H54.9395L58.4325 62.1633H60.2289L63.7219 69.9478H61.8257L61.1271 68.2512ZM60.5782 66.9039L59.3307 63.9098L58.0832 66.9039H60.5782Z" fill="white"/>
<path d="M64.8711 62.1133H68.414C69.2623 62.1133 70.0108 62.263 70.6595 62.6123C71.3082 62.9117 71.8072 63.4107 72.1565 63.9596C72.5058 64.5584 72.7054 65.2071 72.7054 66.0055C72.7054 66.8039 72.5058 67.4526 72.1565 68.0514C71.8072 68.6502 71.3082 69.0993 70.6595 69.3987C70.0108 69.6981 69.2623 69.8977 68.414 69.8977H64.8711V62.1133ZM68.3142 68.4506C69.1126 68.4506 69.7114 68.251 70.1605 67.8019C70.6096 67.3528 70.8591 66.754 70.8591 66.0554C70.8591 65.3069 70.6096 64.7081 70.1605 64.3089C69.7114 63.8598 69.0627 63.6602 68.3142 63.6602H66.6675V68.5005H68.3142V68.4506Z" fill="white"/>
<path d="M80.4383 68.5005V69.9476H74.4004V62.1133H80.2886V63.5604H76.1968V65.257H79.8395V66.6542H76.1968V68.5005H80.4383Z" fill="white"/>
<path d="M89.3222 69.9476V65.257L87.0268 69.0993H86.2284L83.9329 65.3568V69.9476H82.2363V62.1133H83.7333L86.6275 66.9536L89.5218 62.1133H91.0188V69.9476H89.3222Z" fill="white"/>
<path d="M96.9556 67.1532V69.9476H95.1592V67.1532L92.1152 62.1133H94.0614L96.1572 65.6063L98.2031 62.1133H99.9995L96.9556 67.1532Z" fill="white"/>
</svg>
